<svg width="14" height="15" viewBox="0 0 14 15" fill="none" xmlns="http://www.w3.org/2000/svg">
<path d="M3.16952 4.94488V14.5754H0.178794V4.94488H3.16952ZM3.36457 1.96693C3.36457 2.44294 3.20746 2.83767 2.8932 3.15115C2.57896 3.46461 2.17261 3.62136 1.67416 3.62136H1.65791C1.15945 3.62136 0.758518 3.46461 0.455111 3.15115C0.151704 2.83767 0 2.44294 0 1.96693C0 1.49092 0.157122 1.09618 0.471364 0.782709C0.785608 0.469239 1.19196 0.312504 1.69041 0.312504C2.18886 0.312504 2.58981 0.469239 2.8932 0.782709C3.19661 1.09618 3.35374 1.49092 3.36457 1.96693ZM13.9296 9.05481V14.5754H10.9552V9.42052C10.9552 8.73554 10.8306 8.20148 10.5813 7.81836C10.3321 7.43523 9.94743 7.24367 9.42731 7.24367C9.04804 7.24367 8.7338 7.35396 8.48456 7.57454C8.23534 7.79513 8.0403 8.07377 7.89942 8.41046C7.83442 8.60784 7.80191 8.86906 7.80191 9.19415V14.5754H4.81118C4.82201 11.9863 4.82743 9.89073 4.82743 8.28856C4.82743 6.68638 4.82743 5.72856 4.82743 5.41508L4.81118 4.94488H7.80191V6.33808H7.78565C7.90485 6.12911 8.02947 5.94915 8.15949 5.79821C8.28952 5.64729 8.45748 5.47894 8.66336 5.29319C8.86925 5.10742 9.13473 4.96811 9.4598 4.87523C9.78489 4.78236 10.1316 4.73011 10.5001 4.7185C11.5295 4.7185 12.3584 5.08421 12.9869 5.81563C13.6154 6.54706 13.9296 7.62679 13.9296 9.05481Z" fill="black"/>
</svg>
