<svg width="15" height="25" viewBox="0 0 15 25" fill="none" xmlns="http://www.w3.org/2000/svg">
<path d="M12.5091 0.24807H2.6649C1.31023 0.24807 0.211243 1.34706 0.211243 2.70173V22.379C0.211243 23.7349 1.31023 24.8339 2.6649 24.8339H12.5078C13.8638 24.8339 14.9627 23.7349 14.9627 22.3802V2.70171C14.9627 1.34704 13.8637 0.248047 12.509 0.248047L12.5091 0.24807ZM7.58699 23.6046C6.73878 23.6046 6.05037 23.0551 6.05037 22.3753C6.05037 21.6955 6.73878 21.146 7.58699 21.146C8.4352 21.146 9.12361 21.6955 9.12361 22.3753C9.12361 23.0551 8.4352 23.6046 7.58699 23.6046ZM12.5042 19.9167H2.66983V2.70665H12.5042V19.9167Z" fill="black"/>
</svg>
