<svg width="13" height="15" viewBox="0 0 13 15" fill="none" xmlns="http://www.w3.org/2000/svg">
<path d="M0.730713 5.3541C0.730713 4.71108 0.84324 4.10558 1.0683 3.53758C1.29335 2.9696 1.60414 2.47125 2.00067 2.04258C2.39719 1.6139 2.85266 1.24417 3.36708 0.933377C3.88148 0.622587 4.43341 0.386816 5.02283 0.22606C5.61227 0.065308 6.21777 -0.00971106 6.83935 0.00100677C7.78244 0.00100677 8.66121 0.19927 9.47571 0.595795C10.2902 0.99232 10.9493 1.57103 11.453 2.33192C11.9567 3.09283 12.2085 3.95019 12.2085 4.90398C12.2085 5.48269 12.1549 6.04535 12.0478 6.5919C11.9406 7.13846 11.7584 7.66894 11.5012 8.18337C11.244 8.69777 10.9439 9.14252 10.601 9.51762C10.258 9.89271 9.82937 10.2035 9.31494 10.45C8.80054 10.6965 8.23254 10.809 7.61096 10.7876C7.20371 10.7876 6.80183 10.6911 6.40531 10.4982C6.00879 10.3053 5.71942 10.0428 5.53725 9.71052C5.48366 9.94629 5.40329 10.2839 5.29612 10.7233C5.18894 11.1627 5.11392 11.4467 5.07106 11.5753C5.02819 11.7039 4.96925 11.9182 4.89423 12.2183C4.81921 12.5183 4.73883 12.7273 4.6531 12.8452C4.56737 12.9631 4.47627 13.1507 4.37981 13.4078C4.28337 13.6651 4.14404 13.9008 3.96187 14.1152C3.77967 14.3295 3.59212 14.5867 3.39921 14.8868L3.28669 14.935L3.20631 14.8386C3.10987 13.8955 3.06164 13.3328 3.06164 13.1507C3.06164 12.6041 3.12594 11.9879 3.25454 11.302C3.38316 10.6161 3.58141 9.75339 3.84933 8.71385C4.11725 7.67431 4.27266 7.06881 4.31552 6.89733C4.12262 6.51152 4.02616 6.00783 4.02616 5.38625C4.02616 4.88256 4.18156 4.41637 4.49235 3.98769C4.80314 3.55902 5.19966 3.33933 5.68192 3.3286C6.04629 3.3286 6.33029 3.45185 6.53393 3.69835C6.73754 3.94483 6.83935 4.25025 6.83935 4.61464C6.83935 5.01115 6.71075 5.57915 6.45354 6.31862C6.19633 7.05808 6.06237 7.62073 6.05166 8.00654C6.05166 8.38162 6.18562 8.69242 6.45354 8.9389C6.72146 9.18539 7.04833 9.30864 7.43414 9.30864C7.76637 9.30864 8.07179 9.23362 8.35043 9.08358C8.62908 8.93354 8.86485 8.72992 9.05775 8.47271C9.25066 8.21552 9.41677 7.93152 9.55608 7.62073C9.69541 7.30994 9.80793 6.98308 9.89366 6.64014C9.97941 6.29719 10.0383 5.96496 10.0705 5.64346C10.1026 5.32194 10.1241 5.02189 10.1348 4.74323C10.1348 3.7144 9.80793 2.91065 9.15419 2.33192C8.50046 1.75322 7.64312 1.46386 6.58214 1.46386C5.39256 1.46386 4.39589 1.84967 3.59212 2.62129C2.78837 3.3929 2.38647 4.3735 2.38647 5.56308C2.38647 5.831 2.42398 6.08821 2.499 6.33469C2.57402 6.58119 2.65441 6.7741 2.74014 6.9134C2.82587 7.05273 2.90625 7.19204 2.98127 7.33137C3.05629 7.47069 3.09379 7.56179 3.09379 7.60465C3.09379 7.7654 3.05092 7.97973 2.96519 8.24765C2.87944 8.51558 2.76692 8.64954 2.62761 8.64954C2.61689 8.64954 2.56866 8.64419 2.48293 8.63348C2.17214 8.53702 1.89886 8.3709 1.66308 8.13514C1.42731 7.89937 1.24512 7.61537 1.11652 7.28314C0.987919 6.95092 0.891466 6.6294 0.827165 6.31862C0.762864 6.00783 0.730713 5.68633 0.730713 5.3541Z" fill="black"/>
</svg>
