<svg width="15" height="15" viewBox="0 0 15 15" fill="none" xmlns="http://www.w3.org/2000/svg">
<path d="M14.894 2.24041C14.4761 2.93173 13.9677 3.52703 13.3691 4.02633C13.3691 4.12876 13.3691 4.27597 13.3691 4.46803C13.3691 5.40259 13.2504 6.33077 13.0132 7.25254C12.776 8.1743 12.4145 9.06407 11.9288 9.92181C11.4431 10.7796 10.8613 11.5285 10.1835 12.1686C9.50574 12.8088 8.69242 13.3336 7.74355 13.7433C6.79466 14.153 5.77236 14.345 4.67661 14.3194C2.97089 14.3194 1.41203 13.8009 0 12.7639C0.214628 12.7896 0.457496 12.8023 0.728605 12.8023C2.15193 12.8023 3.4171 12.3095 4.52412 11.3237C3.85766 11.3109 3.26461 11.0804 2.74498 10.6323C2.22535 10.1843 1.86387 9.61457 1.66054 8.92325C1.87517 8.96163 2.0672 8.98084 2.23664 8.98084C2.50776 8.98084 2.77887 8.94245 3.04997 8.86563C2.33832 8.69919 1.75091 8.30233 1.28777 7.67501C0.824623 7.04769 0.593049 6.31156 0.593049 5.46659V5.42818C1.0223 5.69704 1.48545 5.84427 1.98248 5.86988C1.56452 5.54982 1.23129 5.14015 0.98277 4.64085C0.734252 4.14156 0.609995 3.59106 0.609995 2.98935C0.609995 2.36203 0.751198 1.77952 1.0336 1.24182C1.80174 2.30442 2.72803 3.15577 3.81247 3.79588C4.89689 4.436 6.0717 4.78806 7.33689 4.85209C7.28039 4.58324 7.25216 4.32079 7.25216 4.06474C7.25216 3.10456 7.55151 2.29162 8.15021 1.62589C8.74891 0.960171 9.46622 0.620909 10.3021 0.608107C11.1945 0.608107 11.9401 0.972972 12.5388 1.70271C13.2279 1.54908 13.8774 1.26743 14.4874 0.857753C14.2501 1.6771 13.7983 2.31722 13.1318 2.77811C13.7192 2.70129 14.3066 2.52206 14.894 2.24041Z" fill="black"/>
</svg>
